<?xml version="1.0" encoding="UTF-8" standalone="no"?>
<!DOCTYPE svg PUBLIC "-//W3C//DTD SVG 1.1//EN" "http://www.w3.org/Graphics/SVG/1.1/DTD/svg11.dtd">
<svg width="100%" height="100%" viewBox="0 0 1006 801" version="1.1" xmlns="http://www.w3.org/2000/svg" xmlns:xlink="http://www.w3.org/1999/xlink" xml:space="preserve" xmlns:serif="http://www.serif.com/" style="fill-rule:evenodd;clip-rule:evenodd;stroke-linejoin:round;stroke-miterlimit:2;">
    <path d="M454.115,560.456L395.717,560.456L361.466,513.638L334.608,513.638L334.608,560.456L283.109,560.456L283.109,388.218L377.976,388.218C387.832,388.218 396.826,389.86 404.957,393.146C413.088,396.431 419.988,400.907 425.655,406.575C431.323,412.242 435.717,418.854 438.838,426.411C441.959,433.967 443.52,442.098 443.52,450.805C443.52,461.975 440.522,471.873 434.526,480.497C428.53,489.121 420.768,496.144 411.24,501.565L454.115,560.456ZM370.091,468.546C377.154,468.546 382.411,466.78 385.861,463.248C389.31,459.716 391.035,455.487 391.035,450.558C391.035,445.63 389.31,441.359 385.861,437.745C382.411,434.131 377.154,432.324 370.091,432.324L334.608,432.324L334.608,468.546L370.091,468.546ZM480.727,560.456L480.727,388.218L532.226,388.218L532.226,560.456L480.727,560.456ZM651.733,452.037C659.618,454.501 667.75,457.129 676.127,459.922C684.505,462.714 692.144,466.328 699.043,470.764C705.943,475.199 711.61,480.661 716.045,487.15C720.481,493.638 722.698,501.729 722.698,511.421C722.698,528.669 716.045,541.77 702.739,550.723C689.433,559.675 670.296,564.152 645.327,564.152C632.021,564.152 618.345,562.673 604.3,559.716C590.255,556.76 577.401,552.653 565.737,547.396L581.014,504.521C584.628,506.164 589.269,507.93 594.936,509.819C600.604,511.708 606.518,513.433 612.678,514.994C618.838,516.554 624.834,517.868 630.665,518.936C636.497,520.004 641.384,520.538 645.327,520.538C653.704,520.538 659.536,519.511 662.821,517.458C666.107,515.404 667.75,512.735 667.75,509.45C667.75,505.343 665.039,502.304 659.618,500.332C654.197,498.361 646.887,496.226 637.688,493.926C630.296,492.119 622.534,489.901 614.403,487.273C606.271,484.645 598.797,481.195 591.98,476.924C585.162,472.653 579.577,467.314 575.224,460.907C570.871,454.501 568.694,446.534 568.694,437.006C568.694,420.907 575.101,408.176 587.914,398.813C600.727,389.45 620.029,384.768 645.819,384.768C657.483,384.768 669.639,385.918 682.288,388.218C694.936,390.517 706.435,393.967 716.784,398.567L700.522,440.702C696.086,438.895 691.364,437.252 686.353,435.774C681.343,434.296 676.415,433.064 671.569,432.078C666.723,431.092 662.082,430.312 657.647,429.737C653.212,429.162 649.269,428.875 645.819,428.875C637.113,428.875 631.076,429.614 627.709,431.092C624.341,432.571 622.657,434.788 622.657,437.745C622.657,439.224 623.437,440.579 624.998,441.811C626.559,443.043 628.694,444.234 631.405,445.384C634.115,446.534 637.195,447.643 640.645,448.71C644.095,449.778 647.791,450.887 651.733,452.037ZM193.241,791.359L130.616,791.359L83.904,728.991L64.654,750.807L64.654,791.359L11.013,791.359L11.013,611.954L64.654,611.954L64.654,677.402L121.889,611.954L186.311,611.954L117.783,690.235L193.241,791.359ZM405.716,791.359L350.791,791.359L339.241,759.02L269.943,759.02L258.137,791.359L203.212,791.359L273.28,611.954L335.905,611.954L405.716,791.359ZM324.098,716.928L304.592,663.029L285.086,716.928L324.098,716.928ZM574.409,616.419L574.409,659.949L476.365,659.949L476.365,688.439L555.416,688.439L555.416,736.434L476.365,736.434L476.365,791.359L422.723,791.359L422.723,612.755C436.688,623.571 466.66,631.056 501.346,631.056C531.961,631.056 558.904,625.225 574.409,616.419ZM782.623,791.359L719.998,791.359L673.286,728.991L654.036,750.807L654.036,791.359L600.394,791.359L600.394,611.954L654.036,611.954L654.036,677.402L711.271,611.954L775.693,611.954L707.165,690.235L782.623,791.359ZM994.795,791.359L939.87,791.359L928.32,759.02L859.022,759.02L847.216,791.359L792.29,791.359L862.358,611.954L924.983,611.954L994.795,791.359ZM913.177,716.928L893.671,663.029L874.165,716.928L913.177,716.928ZM503.317,355.217C419.576,355.217 283.988,358.008 251.681,295.254C222.425,238.427 308.836,255.287 327.947,263.915C327.947,263.915 331.125,230.944 326.825,176.138C322.899,126.111 331.396,38.988 444.216,15.746C460.302,11.894 479.614,8.519 502.87,8.774C526.125,8.519 545.506,11.894 561.591,15.746C674.412,38.988 682.908,126.111 678.983,176.138C674.682,230.944 677.86,263.915 677.86,263.915C696.971,255.287 783.382,238.427 754.126,295.254C721.82,358.008 587.058,355.217 503.317,355.217Z" style="fill:rgb(33,31,31);"/>
</svg>
