<?xml version="1.0" encoding="UTF-8" standalone="no"?>
<!DOCTYPE svg PUBLIC "-//W3C//DTD SVG 1.1//EN" "http://www.w3.org/Graphics/SVG/1.1/DTD/svg11.dtd">
<svg width="100%" height="100%" viewBox="0 0 1159 469" version="1.1" xmlns="http://www.w3.org/2000/svg" xmlns:xlink="http://www.w3.org/1999/xlink" xml:space="preserve" xmlns:serif="http://www.serif.com/" style="fill-rule:evenodd;clip-rule:evenodd;stroke-linejoin:round;stroke-miterlimit:2;">
    <g transform="matrix(1,0,0,1,-282.993,-521.588)">
        <g transform="matrix(0.70682,0,0,0.70682,251.31,272.3)">
            <g transform="matrix(16.9953,0,0,16.9953,-12662.7,-11025.9)">
                <path d="M791.479,687.915L793.319,687.915L793.319,683.451L796.183,683.451C796.615,683.451 796.727,683.531 796.919,684.011L797.911,686.747C798.327,687.755 798.567,687.915 799.799,687.915L800.407,687.915L800.407,686.187L799.991,686.187C799.655,686.187 799.575,686.123 799.447,685.819L798.791,683.819C798.551,683.243 798.359,682.939 797.975,682.811L797.975,682.619C799.319,682.139 800.151,681.035 800.151,679.515C800.151,677.371 798.551,676.059 796.167,676.059L791.479,676.059L791.479,687.915ZM793.319,681.723L793.319,677.771L795.911,677.771C797.303,677.771 798.231,678.571 798.231,679.787C798.231,680.939 797.383,681.723 796.119,681.723L793.319,681.723Z" style="fill:rgb(12,11,16);fill-rule:nonzero;"/>
                <g transform="matrix(1,0,0,1,0.205674,0)">
                    <path d="M801.671,687.915L807.479,687.915L807.479,686.187L805.495,686.187L805.495,677.771L807.479,677.771L807.479,676.059L801.671,676.059L801.671,677.771L803.655,677.771L803.655,686.187L801.671,686.187L801.671,687.915Z" style="fill:rgb(12,11,16);fill-rule:nonzero;"/>
                </g>
                <g transform="matrix(1,0,0,1,0.205674,0)">
                    <path d="M813.415,688.139C815.991,688.139 817.831,686.667 817.831,684.459C817.831,682.619 816.583,681.435 814.359,681.131L812.391,680.859C811.223,680.715 810.615,680.123 810.615,679.243C810.615,678.107 811.655,677.419 812.999,677.419C814.471,677.419 815.447,678.235 815.655,679.499L817.591,679.499C817.255,677.259 815.479,675.819 812.967,675.819C810.471,675.819 808.727,677.243 808.727,679.387C808.727,681.195 809.959,682.331 812.023,682.603L814.007,682.875C815.239,683.035 815.927,683.659 815.927,684.603C815.927,685.787 814.855,686.555 813.383,686.555C811.687,686.555 810.567,685.531 810.327,684.059L808.423,684.059C808.807,686.539 810.727,688.139 813.415,688.139Z" style="fill:rgb(12,11,16);fill-rule:nonzero;"/>
                </g>
            </g>
            <g transform="matrix(16.9953,0,0,16.9953,-12662.7,-11108.9)">
                <path d="M791.479,707.115L793.319,707.115L793.319,703.979L795.271,701.675L797.991,705.979C798.647,707.051 798.919,707.115 799.847,707.115L800.855,707.115L800.855,705.387L800.119,705.387C799.863,705.387 799.799,705.371 799.575,705.035L796.503,700.219L800.695,695.259L798.455,695.259L793.495,701.179L793.319,701.179L793.319,695.259L791.479,695.259L791.479,707.115Z" style="fill:rgb(12,11,16);fill-rule:nonzero;"/>
                <g transform="matrix(1,0,0,1,0.210042,0)">
                    <path d="M801.399,707.115L803.319,707.115L804.263,704.443L809.479,704.443L810.407,707.115L812.343,707.115L807.959,695.259L805.783,695.259L801.399,707.115ZM804.839,702.811L806.759,697.355L806.999,697.355L808.903,702.811L804.839,702.811Z" style="fill:rgb(12,11,16);fill-rule:nonzero;"/>
                </g>
                <g transform="matrix(1,0,0,1,0.210042,0)">
                    <path d="M813.607,707.115L815.447,707.115L815.447,702.331L820.407,702.331L820.407,700.683L815.447,700.683L815.447,696.971L821.207,696.971L821.207,695.259L813.607,695.259L813.607,707.115Z" style="fill:rgb(12,11,16);fill-rule:nonzero;"/>
                </g>
                <g transform="matrix(1,0,0,1,0.210042,0)">
                    <path d="M822.759,707.115L824.599,707.115L824.599,703.979L826.551,701.675L829.271,705.979C829.927,707.051 830.199,707.115 831.127,707.115L832.135,707.115L832.135,705.387L831.399,705.387C831.143,705.387 831.079,705.371 830.855,705.035L827.783,700.219L831.975,695.259L829.735,695.259L824.775,701.179L824.599,701.179L824.599,695.259L822.759,695.259L822.759,707.115Z" style="fill:rgb(12,11,16);fill-rule:nonzero;"/>
                </g>
                <g transform="matrix(1,0,0,1,0.520491,0)">
                    <path d="M832.679,707.115L834.599,707.115L835.543,704.443L840.759,704.443L841.687,707.115L843.623,707.115L839.239,695.259L837.063,695.259L832.679,707.115ZM836.119,702.811L838.039,697.355L838.279,697.355L840.183,702.811L836.119,702.811Z" style="fill:rgb(12,11,16);fill-rule:nonzero;"/>
                </g>
            </g>
        </g>
        <g transform="matrix(-0.391528,-2.17342e-17,2.17342e-17,-0.391528,865.529,1048.84)">
            <path d="M951.547,748.059L1487.85,1023.9L1487.85,1346.66L1165.09,1346.66L951.476,748.128L773.238,1114.86L564.671,1114.86L564.671,894.141L951.416,748.07L415.11,472.229L415.11,149.467L737.873,149.467L951.487,748.001L1129.73,381.266L1338.29,381.266L1338.29,601.988L951.547,748.059Z" style="fill:rgb(29,73,244);"/>
        </g>
    </g>
</svg>
