<?xml version="1.0" encoding="UTF-8" standalone="no"?>
<!DOCTYPE svg PUBLIC "-//W3C//DTD SVG 1.1//EN" "http://www.w3.org/Graphics/SVG/1.1/DTD/svg11.dtd">
<svg width="100%" height="100%" viewBox="0 0 1000 1000" version="1.1" xmlns="http://www.w3.org/2000/svg" xmlns:xlink="http://www.w3.org/1999/xlink" xml:space="preserve" xmlns:serif="http://www.serif.com/" style="fill-rule:evenodd;clip-rule:evenodd;stroke-linejoin:round;stroke-miterlimit:2;">
    <rect x="-0" y="-0" width="1000" height="1000" style="fill:white;"/>
    <path d="M1000,-0L1000,1000L-0,1000L-0,-0L1000,-0ZM978.667,21.333L21.333,21.333L21.333,978.667C164.404,978.667 978.667,978.667 978.667,978.667L978.667,21.333Z" style="fill:rgb(41,72,235);"/>
    <path d="M263.554,399.335L241.704,399.335L241.704,354.074L286.964,354.074L286.964,375.924L263.554,375.924L263.554,399.335ZM286.964,354.074L286.964,330.664L308.814,330.664L308.814,354.074L286.964,354.074ZM286.964,330.664L241.704,330.664L241.704,354.074L218.293,354.074L218.293,330.664L173.033,330.664L173.033,308.814L286.964,308.814L286.964,330.664ZM308.814,444.732L331.444,443.815L332.362,421.185L354.074,421.185L354.074,444.595L377.485,444.595L377.485,489.855L397.29,489.855L398.511,576.474L376.293,576.907L354.074,577.341L354.074,600.528L376.705,601.446L377.167,611.98L377.627,622.515L354.074,622.515L354.074,600.665L332.225,600.665L332.225,577.255L308.814,577.255L308.814,555.268L331.444,556.185L331.906,566.72L332.367,577.255L354.074,577.255L354.074,555.405L377.627,555.405L377.167,544.87L376.705,534.335L354.209,533.421L353.294,510.925L297.499,510.514L241.704,510.106L241.704,533.469L263.944,533.903L286.184,534.335L286.646,544.87L287.106,555.405L263.554,555.405L263.554,577.117L286.184,578.035L286.641,589.28L287.099,600.526L297.566,600.985L308.034,601.446L308.466,623.618L308.898,645.79L320.171,646.249L331.444,646.706L332.365,667.691L376.705,668.556L377.622,691.186L332.225,691.186L332.225,667.775L286.964,667.775L286.964,645.926L263.554,645.926L263.554,622.515L286.964,622.515L286.964,600.665L241.841,600.665L240.924,578.035L218.727,577.603L196.531,577.169L196.097,555.753L195.663,534.335L161.718,533.914L127.773,533.494L127.773,466.445L151.183,466.445L151.183,510.145L173.033,510.145L173.033,489.884L331.444,489.075L332.362,466.445L308.814,466.445L308.814,444.732ZM263.554,645.926L263.554,667.775L196.444,667.775L196.444,691.186L173.033,691.186L173.033,645.926L218.293,645.926L218.293,622.515L241.704,622.515L241.704,645.926L263.554,645.926ZM263.554,667.775L286.964,667.775L286.964,691.186L263.554,691.186L263.554,667.775ZM332.225,421.185L308.814,421.185L308.814,444.595L287.106,444.595L286.646,455.13L286.184,465.665L252.239,466.086L218.293,466.506L218.293,444.732L240.924,443.815L241.841,421.185L263.554,421.185L263.554,444.595L286.964,444.595L286.964,421.185L263.554,421.185L263.554,399.421L285.794,398.987L308.034,398.554L308.951,375.924L332.225,375.924L332.225,330.806L342.759,330.346L353.294,329.884L353.756,319.349L354.216,308.814L308.814,308.814L308.814,173.033L332.225,173.033L332.225,194.883L377.485,194.883L377.485,173.033L399.335,173.033L399.335,151.183L422.745,151.183L422.745,127.773L466.445,127.773L466.445,151.183L489.855,151.183L489.855,173.033L444.595,173.033L444.595,194.883L422.745,194.883L422.745,240.231L465.665,239.363L466.127,228.828L466.587,218.293L444.595,218.293L444.595,194.969L466.835,194.535L489.075,194.103L489.537,183.568L489.997,173.033L510.145,173.033L510.145,151.183L489.855,151.183L489.855,127.773L578.815,127.773L578.815,151.183L533.413,151.183L533.873,161.718L534.335,172.253L544.87,172.715L555.405,173.175L555.405,194.883L510.145,194.883L510.145,218.293L489.855,218.293L489.855,240.143L510.145,240.143L510.145,218.293L555.405,218.293L555.405,240.143L533.555,240.143L533.555,263.554L510.145,263.554L510.145,285.404L489.855,285.404L489.855,263.554L466.445,263.554L466.445,285.404L489.855,285.404L489.855,308.814L533.555,308.814L533.555,330.664L578.815,330.664L578.815,308.814L600.665,308.814L600.665,354.074L624.076,354.074L624.076,399.472L601.446,398.554L601.013,376.314L600.579,354.074L555.405,354.074L555.405,376.066L544.87,375.606L534.335,375.144L533.903,352.904L533.469,330.664L510.145,330.664L510.145,375.924L466.582,375.924L465.665,398.554L455.13,399.016L444.595,399.477L444.595,375.924L466.445,375.924L466.445,330.664L444.595,330.664L444.595,263.554L422.784,263.554L422.375,319.349L421.965,375.144L399.725,375.576L377.485,376.01L377.485,354.216L388.02,353.756L398.554,353.294L398.987,331.054L399.421,308.814L377.485,308.814L377.485,354.074L354.216,354.074L353.756,364.609L353.294,375.144L342.759,375.606L332.225,376.066L332.225,421.185ZM533.555,308.814L533.555,263.554L555.405,263.554L555.405,308.814L533.555,308.814ZM332.225,691.186L332.225,713.036L308.814,713.036L308.814,691.186L332.225,691.186ZM377.485,444.595L377.485,399.335L399.335,399.335L399.335,421.185L422.745,421.185L422.745,425.409C422.745,427.821 420.039,433.489 416.442,438.619C412.974,443.563 408.363,451.481 406.196,456.216C404.028,460.951 401.598,465.231 400.794,465.727C399.942,466.255 399.335,462.053 399.335,455.612L399.335,444.595L377.485,444.595ZM600.665,308.814L600.665,285.546L590.13,285.085L579.596,284.623L579.163,262.383L578.73,240.143L600.665,240.143L600.665,285.404L624.076,285.404L624.076,240.143L645.926,240.143L645.926,330.664L669.336,330.664L669.336,308.814L691.186,308.814L691.186,376.066L680.651,375.606L670.116,375.144L669.656,364.676L669.197,354.209L657.951,353.751L646.706,353.294L646.249,342.049L645.791,330.803L635.324,330.344L624.856,329.884L624.394,319.349L623.934,308.814L600.665,308.814ZM645.926,240.143L645.926,218.293L624.076,218.293L624.076,194.883L600.665,194.883L600.665,151.183L624.076,151.183L624.076,173.033L669.336,173.033L669.336,218.293L691.186,218.293L691.186,285.404L669.336,285.404L669.336,240.143L645.926,240.143ZM669.336,173.033L669.336,151.183L691.186,151.183L691.186,173.033L669.336,173.033ZM669.336,151.183L624.076,151.183L624.076,127.773L669.336,127.773L669.336,151.183ZM600.665,194.883L600.665,218.293L578.815,218.293L578.815,194.883L600.665,194.883ZM600.665,218.293L624.076,218.293L624.076,240.143L600.665,240.143L600.665,218.293ZM399.335,151.183L377.485,151.183L377.485,127.773L399.335,127.773L399.335,151.183ZM377.485,263.554L377.485,218.293L354.074,218.293L354.074,240.143L332.225,240.143L332.225,285.404L354.074,285.404L354.074,263.554L377.485,263.554ZM377.485,263.554L377.485,285.546L388.02,285.085L398.554,284.623L399.016,274.089L399.477,263.554L377.485,263.554ZM354.074,781.707L354.074,803.556L332.225,803.556L332.225,826.967L308.814,826.967L308.814,736.446L332.225,736.446L332.225,781.707L354.074,781.707ZM377.485,848.817L444.595,848.817L444.595,872.227L377.485,872.227L377.485,848.817ZM377.485,826.967L377.485,848.817L354.074,848.817L354.074,826.967L377.485,826.967ZM377.485,781.707L399.335,781.707L399.335,803.556L444.595,803.556L444.595,826.967L377.485,826.967L377.485,781.707ZM510.145,848.817L489.855,848.817L489.855,826.967L510.145,826.967L510.145,848.817ZM826.967,848.817L848.817,848.817L848.817,872.227L826.967,872.227L826.967,848.817ZM848.817,713.036L848.817,691.186L872.227,691.186L872.227,713.036L848.817,713.036ZM624.076,444.595L624.076,421.185L645.926,421.185L645.926,444.595L624.076,444.595ZM600.665,444.595L596.373,444.572C594.014,444.558 591.317,444.032 590.38,443.401C586.666,440.896 578.815,428.306 578.815,424.852L578.815,421.185L600.665,421.185L600.665,444.595ZM600.665,736.446L624.076,736.446L624.076,803.556L645.926,803.556L645.926,826.967L624.076,826.967L624.076,848.817L600.665,848.817L600.665,872.227L510.145,872.227L510.145,848.817L555.405,848.817L555.405,803.556L578.815,803.556L578.815,826.967L600.665,826.967L600.665,803.556L578.815,803.556L578.815,781.707L600.665,781.707L600.665,736.446ZM624.076,848.817L645.926,848.817L645.926,826.967L691.186,826.967L691.186,848.817L714.596,848.817L714.596,872.227L624.076,872.227L624.076,848.817ZM714.596,848.817L714.596,803.556L759.857,803.556L759.857,826.967L736.446,826.967L736.446,848.817L714.596,848.817ZM736.446,848.817L759.857,848.817L759.857,872.227L736.446,872.227L736.446,848.817ZM759.857,848.817L759.857,826.967L781.707,826.967L781.707,803.556L759.857,803.556L759.857,781.707L714.596,781.707L714.596,803.556L669.336,803.556L669.336,758.296L645.926,758.296L645.926,736.446L624.076,736.446L624.076,667.775L600.665,667.775L600.665,645.926L578.678,645.926L579.596,623.295L590.13,622.833L600.665,622.373L600.665,600.665L624.076,600.665L624.076,645.926L669.199,645.926L670.116,623.295L680.651,622.833L691.186,622.373L691.186,645.926L669.336,645.926L669.336,667.638L646.706,668.556L646.274,690.796L645.84,713.036L669.336,713.036L669.336,667.775L691.186,667.775L691.186,645.926L736.446,645.926L736.446,622.515L714.596,622.515L714.596,600.665L759.857,600.665L759.857,667.775L781.707,667.775L781.707,645.926L805.117,645.926L805.117,600.665L826.967,600.665L826.967,622.515L848.817,622.515L848.817,645.926L826.967,645.926L826.967,713.036L848.817,713.036L848.817,758.296L805.117,758.296L805.117,781.707L848.817,781.707L848.817,758.296L872.227,758.296L872.227,803.556L826.967,803.556L826.967,848.817L805.117,848.817L805.117,872.227L781.707,872.227L781.707,848.817L759.857,848.817ZM848.817,622.515L848.817,600.665L826.967,600.665L826.967,577.255L805.117,577.255L805.117,600.665L759.857,600.665L759.857,577.255L738.268,577.255C726.392,577.255 716.209,577.723 715.637,578.296C715.065,578.867 714.596,584.134 714.596,590.001L714.596,600.665L669.25,600.665L669.684,578.425L670.116,556.185L680.581,555.725L691.047,555.266L691.506,544.8L691.966,534.335L714.596,533.418L714.596,510.145L736.446,510.145L736.446,489.855L805.117,489.855L805.117,510.145L848.817,510.145L848.817,489.855L872.227,489.855L872.227,533.469L849.987,533.903L827.747,534.335L827.285,544.87L826.825,555.405L872.227,555.405L872.227,622.515L848.817,622.515ZM805.117,489.855L805.117,466.445L826.967,466.445L826.967,489.855L805.117,489.855ZM826.967,466.445L826.967,444.595L805.117,444.595L805.117,421.185L872.227,421.185L872.227,444.595L848.817,444.595L848.817,466.445L826.967,466.445ZM805.117,421.185L736.446,421.185L736.446,399.335L759.857,399.335L759.857,354.074L781.707,354.074L781.707,375.924L805.117,375.924L805.117,354.074L781.707,354.074L781.707,330.664L759.857,330.664L759.857,354.074L736.446,354.074L736.446,399.335L714.596,399.335L714.596,308.814L826.967,308.814L826.967,330.664L872.227,330.664L872.227,354.074L848.817,354.074L848.817,375.924L872.227,375.924L872.227,399.335L805.117,399.335L805.117,421.185ZM714.596,399.335L714.596,421.185L736.309,421.185L737.227,443.815L759.857,444.732L759.857,466.445L736.446,466.445L736.446,489.855L714.596,489.855L714.596,510.145L691.186,510.145L691.186,444.595L714.596,444.595L714.596,421.322L691.966,420.404L691.504,409.87L691.044,399.335L714.596,399.335ZM624.076,600.665L624.076,577.255L600.665,577.255L600.665,600.665L578.678,600.665L579.596,578.035L590.13,577.573L600.665,577.113L600.665,555.405L624.076,555.405L624.076,533.555L645.926,533.555L645.926,600.665L624.076,600.665ZM645.926,533.555L645.926,510.145L624.076,510.145L624.076,489.855L615.584,489.855C610.501,489.855 606.588,489.072 605.836,487.905C603.379,484.092 600.863,468.608 600.765,456.691L600.665,444.595L623.99,444.595L624.424,466.835L624.856,489.075L647.096,489.507L669.336,489.941L669.336,533.555L645.926,533.555ZM624.076,510.145L624.076,533.418L601.446,534.335L600.984,544.87L600.523,555.405L588.542,555.405L594.366,543.81C597.57,537.433 601.119,527.776 602.252,522.351C603.386,516.924 605.073,511.969 606.001,511.338C606.928,510.708 611.376,510.182 615.882,510.168L624.076,510.145ZM422.745,645.926L422.745,691.186L399.335,691.186L399.335,645.926L422.745,645.926ZM422.879,645.841L422.883,645.926L422.745,645.926L422.745,645.838L422.879,645.841ZM377.485,758.234L377.485,736.446L354.074,736.446L354.074,713.036L444.595,713.036L444.595,691.186L466.531,691.186L466.097,668.946L465.665,646.706L422.879,645.841L421.965,623.295L399.335,622.378L399.335,600.501L489.821,600.501L489.855,613.463L489.855,622.515L510.145,622.515L510.145,600.501L554.397,600.501L555.405,600.665L555.405,622.373L544.87,622.833L534.335,623.295L533.418,645.926L489.855,645.926L489.855,691.186L510.007,691.186L510.925,668.556L533.555,667.638L533.555,691.186L522.891,691.186C517.024,691.186 511.757,691.654 511.186,692.227C510.613,692.798 510.145,707.898 510.145,725.782L510.145,758.296L489.997,758.296L489.537,747.761L489.075,737.227L466.445,736.309L466.445,781.707L444.732,781.707L443.815,759.076L377.485,758.234ZM466.445,781.707L533.418,781.707L534.335,759.076L544.87,758.614L555.405,758.154L555.405,736.446L578.815,736.446L578.815,758.296L555.405,758.296L555.405,781.707L533.555,781.707L533.555,803.556L466.445,803.556L466.445,781.707ZM578.815,736.446L578.815,712.898L556.185,713.816L555.268,736.446L533.555,736.446L533.555,691.186L600.665,691.186L600.665,736.446L578.815,736.446ZM354.074,781.707L354.074,758.296L377.485,758.296L377.485,781.707L354.074,781.707ZM691.186,691.186L691.186,758.296L759.857,758.296L759.857,691.186L691.186,691.186ZM714.596,713.036L736.446,713.036L736.446,736.446L714.596,736.446L714.596,713.036ZM781.707,691.186L781.707,736.446L805.117,736.446L805.117,691.186L781.707,691.186ZM781.707,533.555L781.707,510.145L771.823,510.145C766.385,510.145 761.469,510.613 760.898,511.186C760.325,511.757 759.857,517.024 759.857,522.891L759.857,533.555L781.707,533.555ZM781.707,533.555L781.707,555.405L805.117,555.405L805.117,533.555L781.707,533.555ZM173.033,444.595L127.773,444.595L127.773,421.185L173.033,421.185L173.033,444.595ZM173.033,444.595L196.586,444.595L196.125,455.13L195.663,465.665L173.033,466.582L173.033,444.595ZM151.183,577.255L127.773,577.255L127.773,555.405L151.183,555.405L151.183,577.255ZM151.183,577.255L173.033,577.255L173.033,622.515L151.183,622.515L151.183,691.186L127.773,691.186L127.773,600.665L151.183,600.665L151.183,577.255ZM127.773,127.773L286.964,127.773L286.964,285.404L127.773,285.404L127.773,127.773ZM151.183,151.183L151.183,263.554L263.554,263.554L263.554,151.183L151.183,151.183ZM173.033,173.033L241.704,173.033L241.704,240.143L173.033,240.143L173.033,173.033ZM332.225,127.773L354.074,127.773L354.074,151.183L332.225,151.183L332.225,127.773ZM714.596,127.773L872.227,127.773L872.227,285.404L714.596,285.404L714.596,127.773ZM736.446,151.183L736.446,263.554L848.817,263.554L848.817,151.183L736.446,151.183ZM759.857,173.033L826.967,173.033L826.967,240.143L759.857,240.143L759.857,173.033ZM127.773,308.814L151.183,308.814L151.183,354.074L127.773,354.074L127.773,308.814ZM173.033,354.074L196.444,354.074L196.444,375.924L218.293,375.924L218.293,399.335L173.033,399.335L173.033,354.074ZM127.773,375.924L151.183,375.924L151.183,399.335L127.773,399.335L127.773,375.924ZM542.793,403.355L534.335,399.514L544.87,399.425L555.405,399.335L555.405,404.988C555.405,409.517 554.991,410.299 553.328,408.919C552.187,407.97 547.445,405.467 542.793,403.355ZM482.052,411.029C503.228,406.247 530.932,411.062 548.739,422.617C574.534,439.361 591.206,469.129 591.278,498.58C591.307,510.416 586.492,529.655 580.837,540.305C574.043,553.097 553.585,572.644 540.642,578.711C517.868,589.386 495.532,590.635 471.274,582.591L458.154,578.241L435.378,583.892C422.85,587.001 412.089,589.041 411.463,588.426C410.498,587.479 415.593,565.874 420.994,547.992L422.527,542.921L418.764,533.661C413.486,520.67 411.624,511.203 411.683,497.659C411.863,456.286 441.115,420.275 482.052,411.029ZM484.602,428.342C456.377,435.175 433.843,459.342 428.752,488.24C426.505,501 428.991,516.6 435.541,530.847L440.397,541.405L437.171,553.477C435.398,560.117 434.257,565.863 434.636,566.247C435.016,566.631 441.124,565.534 448.21,563.808L461.092,560.671L470.187,564.95C518.257,587.565 574.133,552.23 574.133,499.22C574.133,464.422 548.535,433.839 514.149,427.559C502.383,425.409 496.025,425.578 484.602,428.342ZM462.751,463.363L466.86,458.478L472.404,458.95L477.949,459.422L482.575,469.98L487.201,480.536L483.148,486.233C478.5,492.765 478.862,494.099 488.034,504.301C494.698,511.715 506.302,519.509 510.675,519.509C512.347,519.509 515.905,516.976 518.583,513.878L523.45,508.248L533.917,513.41C539.675,516.248 544.672,519.317 545.022,520.23C546.446,523.941 541.902,532.826 536.836,536.232C523.645,545.101 495.771,535.344 477.187,515.353C456.519,493.117 451.852,476.313 462.751,463.363ZM127.773,713.036L286.964,713.036L286.964,872.227L127.773,872.227L127.773,713.036ZM151.183,736.446L151.183,848.817L263.554,848.817L263.554,736.446L151.183,736.446ZM173.033,758.296L241.704,758.296L241.704,826.967L173.033,826.967L173.033,758.296ZM308.814,848.817L332.225,848.817L332.225,872.227L308.814,872.227L308.814,848.817Z" style="fill:rgb(7,7,7);"/>
</svg>
