<?xml version="1.0" encoding="UTF-8" standalone="no"?>
<!DOCTYPE svg PUBLIC "-//W3C//DTD SVG 1.1//EN" "http://www.w3.org/Graphics/SVG/1.1/DTD/svg11.dtd">
<svg width="100%" height="100%" viewBox="0 0 64 64" version="1.1" xmlns="http://www.w3.org/2000/svg" xmlns:xlink="http://www.w3.org/1999/xlink" xml:space="preserve" xmlns:serif="http://www.serif.com/" style="fill-rule:evenodd;clip-rule:evenodd;stroke-linejoin:round;stroke-miterlimit:2;">
    <path d="M40.792,31.321L42.918,32.87L43.992,43.322L34.403,47.617L31.999,46.551L29.596,47.617L20.007,43.322L21.081,32.87L23.207,31.321L23.485,28.708L31.999,22.552L40.514,28.708L40.792,31.321ZM25.734,32.783L25.202,40.322L31.999,43.632L38.797,40.322L38.265,32.783L31.999,28.551L25.734,32.783ZM31.993,40.424L31.991,40.425L28.507,38.414L28.507,34.392L28.511,34.39L28.511,34.384L28.516,34.381L28.516,34.379L31.999,32.368L35.483,34.379L35.483,34.381L35.488,34.384L35.488,34.39L35.491,34.392L35.491,38.414L32.008,40.425L32.006,40.424L31.999,40.428L31.993,40.424ZM31.999,12.686L45.124,21.746L45.79,27.527L31.999,18.252L18.209,27.527L18.875,21.746L31.999,12.686ZM52.536,48.255L38.127,55.091L32.788,52.777L47.716,45.472L46.578,28.891L51.252,32.358L52.536,48.255ZM11.463,48.255L12.747,32.358L17.421,28.891L16.283,45.472L31.211,52.777L25.872,55.091L11.463,48.255ZM63.4,54.827L44.065,64L36.962,60.941L56.995,51.139L55.468,28.889L61.677,33.495L63.4,54.827ZM0.6,54.827L2.323,33.495L8.532,28.889L7.005,51.139L27.038,60.941L19.935,64L0.6,54.827ZM31.737,-0L49.349,12.158L50.234,19.838L31.728,7.391L13.222,19.838L14.125,12.158L31.737,-0Z" style="fill:rgb(29,73,244);"/>
</svg>
