<?xml version="1.0" encoding="UTF-8" standalone="no"?>
<!DOCTYPE svg PUBLIC "-//W3C//DTD SVG 1.1//EN" "http://www.w3.org/Graphics/SVG/1.1/DTD/svg11.dtd">
<svg width="100%" height="100%" viewBox="0 0 1187 445" version="1.1" xmlns="http://www.w3.org/2000/svg" xmlns:xlink="http://www.w3.org/1999/xlink" xml:space="preserve" xmlns:serif="http://www.serif.com/" style="fill-rule:evenodd;clip-rule:evenodd;stroke-linejoin:round;stroke-miterlimit:2;">
    <path d="M278.916,217.358L293.668,228.106L301.121,300.635L234.582,330.445L217.9,323.045L201.217,330.445L134.679,300.635L142.132,228.106L156.884,217.358L158.814,199.223L217.9,156.504L276.985,199.223L278.916,217.358ZM174.422,227.499L170.731,279.82L217.9,302.79L265.069,279.82L261.377,227.499L217.9,198.134L174.422,227.499ZM217.852,280.528L217.84,280.535L193.667,266.578L193.667,238.666L193.69,238.652L193.69,238.61L193.726,238.589L193.726,238.574L217.9,224.618L242.074,238.574L242.074,238.589L242.11,238.61L242.11,238.652L242.133,238.666L242.133,266.578L217.959,280.535L217.947,280.528L217.9,280.555L217.852,280.528ZM217.9,88.035L308.98,150.91L313.601,191.029L217.9,126.658L122.198,191.029L126.819,150.91L217.9,88.035ZM360.417,334.87L260.425,382.31L223.371,366.253L326.968,315.558L319.072,200.493L351.506,224.555L360.417,334.87ZM75.382,334.87L84.294,224.555L116.727,200.493L108.832,315.558L212.429,366.253L175.374,382.31L75.382,334.87ZM435.807,380.475L301.628,444.135L252.339,422.909L391.357,354.883L380.761,200.477L423.849,232.443L435.807,380.475ZM0,380.475L11.957,232.443L55.046,200.477L44.45,354.883L183.467,422.909L134.178,444.135L0,380.475ZM216.077,0L338.298,84.372L344.437,137.669L216.016,51.29L87.594,137.669L93.858,84.372L216.077,0Z" style="fill:rgb(29,73,244);"/>
    <g>
        <path d="M574.286,205.35L574.286,78.773L629.696,78.773C640.259,78.773 648.808,80.48 655.344,83.894C661.88,87.308 666.666,91.977 669.7,97.9C672.735,103.823 674.252,110.549 674.252,118.077C674.252,124.671 673.318,130.259 671.451,134.84C669.583,139.421 667.06,143.273 663.879,146.395C660.699,149.517 657.124,152.158 653.156,154.317L676.003,205.35L645.365,205.35L625.845,159.131L604.136,159.131L604.136,205.35L574.286,205.35ZM604.136,136.635L625.582,136.635C631.184,136.635 635.693,134.855 639.106,131.295C642.52,127.735 644.227,123.504 644.227,118.602C644.227,113.467 642.477,109.265 638.975,105.997C635.474,102.729 631.301,101.095 626.457,101.095L604.136,101.095L604.136,136.635Z" style="fill:rgb(37,41,46);fill-rule:nonzero;"/>
        <rect x="697.624" y="78.773" width="29.85" height="126.577" style="fill:rgb(37,41,46);fill-rule:nonzero;"/>
        <path d="M803.017,207.101C796.598,207.101 790.295,206.298 784.11,204.694C777.924,203.089 772.248,200.667 767.084,197.428C761.919,194.189 757.674,190.119 754.347,185.217C751.021,180.315 749.066,174.567 748.482,167.972L778.945,167.972C779.704,171.415 781.192,174.319 783.409,176.682C785.627,179.046 788.545,180.855 792.163,182.109C795.781,183.364 799.983,183.991 804.768,183.991C808.153,183.991 811.45,183.539 814.66,182.635C817.869,181.73 820.525,180.286 822.625,178.302C824.726,176.317 825.777,173.691 825.777,170.423C825.777,166.455 824.23,163.581 821.137,161.801C818.044,160.021 814.105,158.635 809.32,157.643L786.648,153.091C779.529,151.691 773.386,149.473 768.222,146.439C763.057,143.404 759.089,139.406 756.317,134.446C753.545,129.486 752.159,123.504 752.159,116.501C752.159,108.273 754.435,101.226 758.987,95.361C763.539,89.496 769.71,85.003 777.501,81.881C785.291,78.759 794.059,77.198 803.805,77.198C814.543,77.198 823.676,78.89 831.204,82.275C838.732,85.659 844.48,90.313 848.448,96.237C852.417,102.16 854.488,108.856 854.663,116.326L824.901,116.326C824.551,112.533 823.413,109.484 821.487,107.179C819.562,104.874 817.023,103.167 813.872,102.058C810.72,100.949 807.073,100.395 802.93,100.395C795.985,100.395 790.996,101.737 787.961,104.421C784.927,107.106 783.409,110.082 783.409,113.35C783.409,116.618 784.606,119.302 786.998,121.403C789.391,123.504 793.359,125.08 798.903,126.13L819.299,130.069C827.819,131.528 834.749,133.994 840.089,137.466C845.428,140.938 849.368,145.198 851.906,150.246C854.445,155.294 855.714,160.999 855.714,167.36C855.714,175.296 853.423,182.241 848.842,188.193C844.261,194.146 838.032,198.785 830.153,202.111C822.275,205.438 813.23,207.101 803.017,207.101Z" style="fill:rgb(37,41,46);fill-rule:nonzero;"/>
        <path d="M574.286,360.603L574.286,234.026L605.274,234.026L605.274,288.561L646.678,234.026L680.38,234.026L643.877,282.696L685.632,360.603L653.331,360.603L622.518,304.405L605.274,325.851L605.274,360.603L574.286,360.603Z" style="fill:rgb(37,41,46);fill-rule:nonzero;"/>
        <path d="M696.574,360.603L741.567,234.026L772.467,234.026L817.548,360.603L787.961,360.603L778.595,333.642L735.877,333.642L726.336,360.603L696.574,360.603ZM742.355,307.994L771.679,307.994L757.061,262.65L742.355,307.994Z" style="fill:rgb(37,41,46);fill-rule:nonzero;"/>
        <path d="M834.18,360.603L834.18,234.026L923.642,234.026L923.554,258.624L864.117,258.624L864.117,285.935L914.713,285.935L914.713,309.92L864.117,309.92L864.117,360.603L834.18,360.603Z" style="fill:rgb(37,41,46);fill-rule:nonzero;"/>
        <path d="M943.162,360.603L943.162,234.026L974.15,234.026L974.15,288.561L1015.55,234.026L1049.26,234.026L1012.75,282.696L1054.51,360.603L1022.21,360.603L991.395,304.405L974.15,325.851L974.15,360.603L943.162,360.603Z" style="fill:rgb(37,41,46);fill-rule:nonzero;"/>
        <path d="M1065.45,360.603L1110.44,234.026L1141.34,234.026L1186.42,360.603L1156.84,360.603L1147.47,333.642L1104.75,333.642L1095.21,360.603L1065.45,360.603ZM1111.23,307.994L1140.56,307.994L1125.94,262.65L1111.23,307.994Z" style="fill:rgb(37,41,46);fill-rule:nonzero;"/>
    </g>
</svg>
