<?xml version="1.0" encoding="UTF-8" standalone="no"?>
<!DOCTYPE svg PUBLIC "-//W3C//DTD SVG 1.1//EN" "http://www.w3.org/Graphics/SVG/1.1/DTD/svg11.dtd">
<svg width="100%" height="100%" viewBox="0 0 1220 500" version="1.1" xmlns="http://www.w3.org/2000/svg" xmlns:xlink="http://www.w3.org/1999/xlink" xml:space="preserve" xmlns:serif="http://www.serif.com/" style="fill-rule:evenodd;clip-rule:evenodd;stroke-linejoin:round;stroke-miterlimit:2;">
    <path d="M295.704,240.722L310.455,251.47L317.908,323.999L251.37,353.81L234.688,346.409L218.005,353.81L151.466,323.999L158.919,251.47L173.671,240.722L175.602,222.587L234.688,179.869L293.773,222.587L295.704,240.722ZM191.21,250.864L187.519,303.185L234.688,326.154L281.856,303.185L278.165,250.864L234.688,221.498L191.21,250.864ZM234.64,303.892L234.628,303.899L210.455,289.943L210.455,262.03L210.477,262.017L210.477,261.974L210.514,261.953L210.514,261.938L234.688,247.982L258.861,261.938L258.861,261.953L258.898,261.974L258.898,262.017L258.921,262.03L258.921,289.943L234.747,303.899L234.735,303.892L234.688,303.919L234.64,303.892ZM234.688,111.399L325.768,174.274L330.389,214.394L234.688,150.022L138.986,214.394L143.607,174.274L234.688,111.399ZM377.205,358.234L277.213,405.674L240.158,389.617L343.756,338.922L335.86,223.857L368.293,247.919L377.205,358.234ZM92.17,358.234L101.081,247.919L133.515,223.857L125.619,338.922L229.216,389.617L192.162,405.674L92.17,358.234ZM452.595,403.839L318.416,467.499L269.127,446.274L408.144,378.247L397.548,223.842L440.636,255.807L452.595,403.839ZM16.788,403.839L28.745,255.807L71.833,223.842L61.238,378.247L200.255,446.274L150.966,467.499L16.788,403.839ZM232.865,23.364L355.085,107.736L361.225,161.034L232.804,74.655L104.382,161.034L110.646,107.736L232.865,23.364Z" style="fill:rgb(38,92,98);"/>
    <g>
        <path d="M591.074,228.714L591.074,102.137L646.484,102.137C657.047,102.137 665.596,103.844 672.132,107.258C678.668,110.672 683.453,115.341 686.488,121.264C689.523,127.187 691.04,133.913 691.04,141.441C691.04,148.035 690.106,153.623 688.239,158.204C686.371,162.785 683.847,166.637 680.667,169.759C677.486,172.881 673.912,175.522 669.944,177.681L692.791,228.714L662.153,228.714L642.633,182.495L620.924,182.495L620.924,228.714L591.074,228.714ZM620.924,159.999L642.37,159.999C647.972,159.999 652.48,158.219 655.894,154.659C659.308,151.099 661.015,146.868 661.015,141.966C661.015,136.831 659.264,132.629 655.763,129.361C652.261,126.093 648.089,124.459 643.245,124.459L620.924,124.459L620.924,159.999Z" style="fill:rgb(38,92,98);fill-rule:nonzero;"/>
        <rect x="714.412" y="102.137" width="29.85" height="126.577" style="fill:rgb(38,92,98);fill-rule:nonzero;"/>
        <path d="M819.805,230.465C813.386,230.465 807.083,229.663 800.897,228.058C794.712,226.453 789.036,224.031 783.872,220.792C778.707,217.554 774.462,213.483 771.135,208.581C767.809,203.679 765.854,197.931 765.27,191.337L795.733,191.337C796.491,194.78 797.98,197.683 800.197,200.046C802.415,202.41 805.333,204.219 808.951,205.474C812.569,206.728 816.771,207.356 821.556,207.356C824.941,207.356 828.238,206.903 831.447,205.999C834.657,205.094 837.312,203.65 839.413,201.666C841.514,199.682 842.564,197.056 842.564,193.788C842.564,189.819 841.018,186.945 837.925,185.165C834.832,183.385 830.893,181.999 826.108,181.007L803.436,176.455C796.316,175.055 790.174,172.837 785.01,169.803C779.845,166.768 775.877,162.771 773.105,157.81C770.333,152.85 768.947,146.868 768.947,139.865C768.947,131.637 771.223,124.59 775.775,118.726C780.326,112.861 786.498,108.367 794.288,105.245C802.079,102.123 810.847,100.562 820.593,100.562C831.331,100.562 840.464,102.254 847.992,105.639C855.52,109.024 861.268,113.678 865.236,119.601C869.205,125.524 871.276,132.221 871.451,139.69L841.689,139.69C841.339,135.897 840.201,132.848 838.275,130.543C836.349,128.238 833.811,126.531 830.66,125.422C827.508,124.313 823.861,123.759 819.718,123.759C812.773,123.759 807.784,125.101 804.749,127.785C801.714,130.47 800.197,133.446 800.197,136.714C800.197,139.982 801.393,142.667 803.786,144.767C806.179,146.868 810.147,148.444 815.691,149.494L836.087,153.434C844.607,154.892 851.537,157.358 856.877,160.83C862.216,164.303 866.155,168.563 868.694,173.611C871.232,178.658 872.502,184.363 872.502,190.724C872.502,198.66 870.211,205.605 865.63,211.557C861.049,217.51 854.819,222.149 846.941,225.476C839.063,228.802 830.018,230.465 819.805,230.465Z" style="fill:rgb(38,92,98);fill-rule:nonzero;"/>
        <path d="M591.074,383.967L591.074,257.39L622.062,257.39L622.062,311.925L663.466,257.39L697.167,257.39L660.665,306.06L702.42,383.967L670.119,383.967L639.306,327.769L622.062,349.215L622.062,383.967L591.074,383.967Z" style="fill:rgb(38,92,98);fill-rule:nonzero;"/>
        <path d="M713.362,383.967L758.355,257.39L789.255,257.39L834.336,383.967L804.749,383.967L795.383,357.006L752.665,357.006L743.124,383.967L713.362,383.967ZM759.143,331.358L788.467,331.358L773.849,286.014L759.143,331.358Z" style="fill:rgb(38,92,98);fill-rule:nonzero;"/>
        <path d="M850.968,383.967L850.968,257.39L940.43,257.39L940.342,281.988L880.905,281.988L880.905,309.299L931.501,309.299L931.501,333.284L880.905,333.284L880.905,383.967L850.968,383.967Z" style="fill:rgb(38,92,98);fill-rule:nonzero;"/>
        <path d="M959.95,383.967L959.95,257.39L990.938,257.39L990.938,311.925L1032.34,257.39L1066.04,257.39L1029.54,306.06L1071.3,383.967L1039,383.967L1008.18,327.769L990.938,349.215L990.938,383.967L959.95,383.967Z" style="fill:rgb(38,92,98);fill-rule:nonzero;"/>
        <path d="M1082.24,383.967L1127.23,257.39L1158.13,257.39L1203.21,383.967L1173.62,383.967L1164.26,357.006L1121.54,357.006L1112,383.967L1082.24,383.967ZM1128.02,331.358L1157.34,331.358L1142.73,286.014L1128.02,331.358Z" style="fill:rgb(38,92,98);fill-rule:nonzero;"/>
    </g>
</svg>
